<mxfile host="Electron" modified="2023-05-23T20:52:47.368Z" agent="Mozilla/5.0 (Windows NT 10.0; Win64; x64) AppleWebKit/537.36 (KHTML, like Gecko) draw.io/21.2.8 Chrome/112.0.5615.165 Electron/24.2.0 Safari/537.36" etag="g2HCUgpR5qfKHaOzr_Cc" version="21.2.8" type="device">
  <diagram name="Page-1" id="DUg90cqWAYlT8O8Vis49">
    <mxGraphModel dx="2023" dy="1857" grid="1" gridSize="10" guides="1" tooltips="1" connect="1" arrows="1" fold="1" page="1" pageScale="1" pageWidth="827" pageHeight="1169" math="0" shadow="0">
      <root>
        <mxCell id="0" />
        <mxCell id="1" parent="0" />
        <mxCell id="V3ZstoWCX6sCoRPmOgHJ-3" value="" style="group" vertex="1" connectable="0" parent="1">
          <mxGeometry x="259" y="160" width="270" height="120" as="geometry" />
        </mxCell>
        <mxCell id="V3ZstoWCX6sCoRPmOgHJ-1" value="" style="rounded=0;whiteSpace=wrap;html=1;" vertex="1" parent="V3ZstoWCX6sCoRPmOgHJ-3">
          <mxGeometry width="270" height="120" as="geometry" />
        </mxCell>
        <mxCell id="V3ZstoWCX6sCoRPmOgHJ-2" value="Investigating whether a Raspberry Pi executing facial &lt;br/&gt;recognition software can be used to securely identify a persons &lt;br/&gt;face and be integrated into a home to open a door lock without &lt;br/&gt;the need for a physical key" style="text;html=1;strokeColor=none;fillColor=none;align=center;verticalAlign=middle;whiteSpace=wrap;rounded=0;" vertex="1" parent="V3ZstoWCX6sCoRPmOgHJ-3">
          <mxGeometry x="11" y="7" width="250" height="110" as="geometry" />
        </mxCell>
        <mxCell id="V3ZstoWCX6sCoRPmOgHJ-8" value="" style="group" vertex="1" connectable="0" parent="1">
          <mxGeometry x="595" y="32" width="160" height="80" as="geometry" />
        </mxCell>
        <mxCell id="V3ZstoWCX6sCoRPmOgHJ-7" value="" style="rounded=0;whiteSpace=wrap;html=1;" vertex="1" parent="V3ZstoWCX6sCoRPmOgHJ-8">
          <mxGeometry width="160" height="80" as="geometry" />
        </mxCell>
        <mxCell id="V3ZstoWCX6sCoRPmOgHJ-6" value="Application of Facial Recognition with PCA and&lt;br&gt;Raspberry Pi for Access Control to Luggage&lt;br&gt;Lockers" style="text;html=1;strokeColor=none;fillColor=none;align=center;verticalAlign=middle;whiteSpace=wrap;rounded=0;" vertex="1" parent="V3ZstoWCX6sCoRPmOgHJ-8">
          <mxGeometry y="40" width="160" height="10" as="geometry" />
        </mxCell>
        <mxCell id="V3ZstoWCX6sCoRPmOgHJ-9" value="" style="group" vertex="1" connectable="0" parent="1">
          <mxGeometry x="610" y="177" width="150" height="90" as="geometry" />
        </mxCell>
        <mxCell id="V3ZstoWCX6sCoRPmOgHJ-4" value="" style="rounded=0;whiteSpace=wrap;html=1;" vertex="1" parent="V3ZstoWCX6sCoRPmOgHJ-9">
          <mxGeometry width="150" height="90" as="geometry" />
        </mxCell>
        <mxCell id="V3ZstoWCX6sCoRPmOgHJ-5" value="The human face is considered to be one of the most used&lt;br/&gt;metrics for identification," style="text;html=1;strokeColor=none;fillColor=none;align=center;verticalAlign=middle;whiteSpace=wrap;rounded=0;" vertex="1" parent="V3ZstoWCX6sCoRPmOgHJ-9">
          <mxGeometry x="10" y="10" width="130" height="70" as="geometry" />
        </mxCell>
        <mxCell id="V3ZstoWCX6sCoRPmOgHJ-10" value="" style="edgeStyle=orthogonalEdgeStyle;rounded=0;orthogonalLoop=1;jettySize=auto;html=1;" edge="1" parent="1" source="V3ZstoWCX6sCoRPmOgHJ-2" target="V3ZstoWCX6sCoRPmOgHJ-5">
          <mxGeometry relative="1" as="geometry" />
        </mxCell>
        <mxCell id="V3ZstoWCX6sCoRPmOgHJ-11" style="edgeStyle=orthogonalEdgeStyle;rounded=0;orthogonalLoop=1;jettySize=auto;html=1;entryX=0.563;entryY=1;entryDx=0;entryDy=0;entryPerimeter=0;" edge="1" parent="1" source="V3ZstoWCX6sCoRPmOgHJ-5" target="V3ZstoWCX6sCoRPmOgHJ-7">
          <mxGeometry relative="1" as="geometry" />
        </mxCell>
        <mxCell id="V3ZstoWCX6sCoRPmOgHJ-12" value="Also Made The Point" style="text;html=1;strokeColor=none;fillColor=none;align=center;verticalAlign=middle;whiteSpace=wrap;rounded=0;" vertex="1" parent="1">
          <mxGeometry x="561" y="130" width="120" height="30" as="geometry" />
        </mxCell>
        <mxCell id="V3ZstoWCX6sCoRPmOgHJ-14" style="edgeStyle=orthogonalEdgeStyle;rounded=0;orthogonalLoop=1;jettySize=auto;html=1;entryX=0;entryY=0.5;entryDx=0;entryDy=0;" edge="1" parent="1" source="V3ZstoWCX6sCoRPmOgHJ-6" target="V3ZstoWCX6sCoRPmOgHJ-13">
          <mxGeometry relative="1" as="geometry" />
        </mxCell>
        <mxCell id="V3ZstoWCX6sCoRPmOgHJ-13" value="&lt;br&gt;Mladenova&lt;br&gt;et al 2021" style="text;html=1;strokeColor=none;fillColor=none;align=center;verticalAlign=middle;whiteSpace=wrap;rounded=0;" vertex="1" parent="1">
          <mxGeometry x="795" y="69.5" width="52" height="15" as="geometry" />
        </mxCell>
        <mxCell id="V3ZstoWCX6sCoRPmOgHJ-18" value="" style="group" vertex="1" connectable="0" parent="1">
          <mxGeometry x="92" y="189" width="120" height="60" as="geometry" />
        </mxCell>
        <mxCell id="V3ZstoWCX6sCoRPmOgHJ-15" value="" style="rounded=0;whiteSpace=wrap;html=1;container=0;" vertex="1" parent="V3ZstoWCX6sCoRPmOgHJ-18">
          <mxGeometry width="120" height="60" as="geometry" />
        </mxCell>
        <mxCell id="V3ZstoWCX6sCoRPmOgHJ-16" value="Machine Learning" style="text;html=1;strokeColor=none;fillColor=none;align=center;verticalAlign=middle;whiteSpace=wrap;rounded=0;container=0;" vertex="1" parent="V3ZstoWCX6sCoRPmOgHJ-18">
          <mxGeometry x="10" y="18.5" width="100" height="23" as="geometry" />
        </mxCell>
        <mxCell id="V3ZstoWCX6sCoRPmOgHJ-20" style="edgeStyle=orthogonalEdgeStyle;rounded=0;orthogonalLoop=1;jettySize=auto;html=1;exitX=0;exitY=0.5;exitDx=0;exitDy=0;entryX=1;entryY=0.5;entryDx=0;entryDy=0;" edge="1" parent="1" target="V3ZstoWCX6sCoRPmOgHJ-15">
          <mxGeometry relative="1" as="geometry">
            <mxPoint x="259" y="218.0000000000001" as="sourcePoint" />
          </mxGeometry>
        </mxCell>
        <mxCell id="V3ZstoWCX6sCoRPmOgHJ-23" value="" style="edgeStyle=orthogonalEdgeStyle;rounded=0;orthogonalLoop=1;jettySize=auto;html=1;entryX=0.5;entryY=0;entryDx=0;entryDy=0;" edge="1" parent="1" source="V3ZstoWCX6sCoRPmOgHJ-2" target="V3ZstoWCX6sCoRPmOgHJ-21">
          <mxGeometry relative="1" as="geometry" />
        </mxCell>
        <mxCell id="V3ZstoWCX6sCoRPmOgHJ-24" value="" style="group" vertex="1" connectable="0" parent="1">
          <mxGeometry x="335" y="317" width="120" height="60" as="geometry" />
        </mxCell>
        <mxCell id="V3ZstoWCX6sCoRPmOgHJ-21" value="" style="rounded=0;whiteSpace=wrap;html=1;" vertex="1" parent="V3ZstoWCX6sCoRPmOgHJ-24">
          <mxGeometry width="120" height="60" as="geometry" />
        </mxCell>
        <mxCell id="V3ZstoWCX6sCoRPmOgHJ-22" value="Principal Component Analysis" style="text;html=1;strokeColor=none;fillColor=none;align=center;verticalAlign=middle;whiteSpace=wrap;rounded=0;" vertex="1" parent="V3ZstoWCX6sCoRPmOgHJ-24">
          <mxGeometry y="15" width="120" height="30" as="geometry" />
        </mxCell>
        <mxCell id="V3ZstoWCX6sCoRPmOgHJ-25" style="edgeStyle=orthogonalEdgeStyle;rounded=0;orthogonalLoop=1;jettySize=auto;html=1;entryX=1;entryY=0.75;entryDx=0;entryDy=0;exitX=0.934;exitY=1.002;exitDx=0;exitDy=0;exitPerimeter=0;" edge="1" parent="1" source="V3ZstoWCX6sCoRPmOgHJ-7" target="V3ZstoWCX6sCoRPmOgHJ-22">
          <mxGeometry relative="1" as="geometry">
            <mxPoint x="940" y="150" as="sourcePoint" />
            <Array as="points">
              <mxPoint x="744" y="140" />
              <mxPoint x="790" y="140" />
              <mxPoint x="790" y="355" />
            </Array>
          </mxGeometry>
        </mxCell>
        <mxCell id="V3ZstoWCX6sCoRPmOgHJ-26" value="Same Research links to this&amp;nbsp;" style="text;html=1;strokeColor=none;fillColor=none;align=center;verticalAlign=middle;whiteSpace=wrap;rounded=0;" vertex="1" parent="1">
          <mxGeometry x="588" y="339" width="155" height="15" as="geometry" />
        </mxCell>
        <mxCell id="V3ZstoWCX6sCoRPmOgHJ-28" value="" style="rounded=0;whiteSpace=wrap;html=1;" vertex="1" parent="1">
          <mxGeometry x="-74" y="249" width="120" height="60" as="geometry" />
        </mxCell>
        <mxCell id="V3ZstoWCX6sCoRPmOgHJ-29" style="edgeStyle=orthogonalEdgeStyle;rounded=0;orthogonalLoop=1;jettySize=auto;html=1;entryX=1;entryY=0.5;entryDx=0;entryDy=0;" edge="1" parent="1" source="V3ZstoWCX6sCoRPmOgHJ-16" target="V3ZstoWCX6sCoRPmOgHJ-27">
          <mxGeometry relative="1" as="geometry" />
        </mxCell>
        <mxCell id="V3ZstoWCX6sCoRPmOgHJ-30" style="edgeStyle=orthogonalEdgeStyle;rounded=0;orthogonalLoop=1;jettySize=auto;html=1;entryX=1;entryY=0.5;entryDx=0;entryDy=0;" edge="1" parent="1" source="V3ZstoWCX6sCoRPmOgHJ-16" target="V3ZstoWCX6sCoRPmOgHJ-28">
          <mxGeometry relative="1" as="geometry" />
        </mxCell>
        <mxCell id="V3ZstoWCX6sCoRPmOgHJ-32" value="" style="group" vertex="1" connectable="0" parent="1">
          <mxGeometry x="-74" y="130" width="120" height="60" as="geometry" />
        </mxCell>
        <mxCell id="V3ZstoWCX6sCoRPmOgHJ-27" value="" style="rounded=0;whiteSpace=wrap;html=1;" vertex="1" parent="V3ZstoWCX6sCoRPmOgHJ-32">
          <mxGeometry width="120" height="60" as="geometry" />
        </mxCell>
        <mxCell id="V3ZstoWCX6sCoRPmOgHJ-31" value="Haar Cascade classifier" style="text;html=1;strokeColor=none;fillColor=none;align=center;verticalAlign=middle;whiteSpace=wrap;rounded=0;" vertex="1" parent="V3ZstoWCX6sCoRPmOgHJ-32">
          <mxGeometry y="1" width="120" height="59" as="geometry" />
        </mxCell>
        <mxCell id="V3ZstoWCX6sCoRPmOgHJ-69" style="edgeStyle=orthogonalEdgeStyle;rounded=0;orthogonalLoop=1;jettySize=auto;html=1;entryX=1;entryY=0.5;entryDx=0;entryDy=0;" edge="1" parent="1" source="V3ZstoWCX6sCoRPmOgHJ-33" target="V3ZstoWCX6sCoRPmOgHJ-52">
          <mxGeometry relative="1" as="geometry" />
        </mxCell>
        <mxCell id="V3ZstoWCX6sCoRPmOgHJ-33" value="Histogram oriented Gradients" style="text;html=1;strokeColor=none;fillColor=none;align=center;verticalAlign=middle;whiteSpace=wrap;rounded=0;" vertex="1" parent="1">
          <mxGeometry x="-68" y="260" width="110" height="40" as="geometry" />
        </mxCell>
        <mxCell id="V3ZstoWCX6sCoRPmOgHJ-36" value="" style="group" vertex="1" connectable="0" parent="1">
          <mxGeometry x="364" y="88" width="61" height="32" as="geometry" />
        </mxCell>
        <mxCell id="V3ZstoWCX6sCoRPmOgHJ-34" value="" style="rounded=0;whiteSpace=wrap;html=1;" vertex="1" parent="V3ZstoWCX6sCoRPmOgHJ-36">
          <mxGeometry width="60" height="30" as="geometry" />
        </mxCell>
        <mxCell id="V3ZstoWCX6sCoRPmOgHJ-35" value="Hardware" style="text;html=1;strokeColor=none;fillColor=none;align=center;verticalAlign=middle;whiteSpace=wrap;rounded=0;" vertex="1" parent="V3ZstoWCX6sCoRPmOgHJ-36">
          <mxGeometry x="1" y="2" width="60" height="30" as="geometry" />
        </mxCell>
        <mxCell id="V3ZstoWCX6sCoRPmOgHJ-37" value="" style="edgeStyle=orthogonalEdgeStyle;rounded=0;orthogonalLoop=1;jettySize=auto;html=1;" edge="1" parent="1" source="V3ZstoWCX6sCoRPmOgHJ-2" target="V3ZstoWCX6sCoRPmOgHJ-35">
          <mxGeometry relative="1" as="geometry" />
        </mxCell>
        <mxCell id="V3ZstoWCX6sCoRPmOgHJ-41" value="" style="group" vertex="1" connectable="0" parent="1">
          <mxGeometry x="240" y="40" width="110" height="40" as="geometry" />
        </mxCell>
        <mxCell id="V3ZstoWCX6sCoRPmOgHJ-38" value="" style="rounded=0;whiteSpace=wrap;html=1;" vertex="1" parent="V3ZstoWCX6sCoRPmOgHJ-41">
          <mxGeometry x="5" width="100" height="40" as="geometry" />
        </mxCell>
        <mxCell id="V3ZstoWCX6sCoRPmOgHJ-40" value="Raspberry Pi" style="text;html=1;strokeColor=none;fillColor=none;align=center;verticalAlign=middle;whiteSpace=wrap;rounded=0;" vertex="1" parent="V3ZstoWCX6sCoRPmOgHJ-41">
          <mxGeometry y="7.5" width="110" height="25" as="geometry" />
        </mxCell>
        <mxCell id="V3ZstoWCX6sCoRPmOgHJ-42" style="edgeStyle=orthogonalEdgeStyle;rounded=0;orthogonalLoop=1;jettySize=auto;html=1;" edge="1" parent="1" source="V3ZstoWCX6sCoRPmOgHJ-35" target="V3ZstoWCX6sCoRPmOgHJ-40">
          <mxGeometry relative="1" as="geometry" />
        </mxCell>
        <mxCell id="V3ZstoWCX6sCoRPmOgHJ-44" style="edgeStyle=orthogonalEdgeStyle;rounded=0;orthogonalLoop=1;jettySize=auto;html=1;" edge="1" parent="1" source="V3ZstoWCX6sCoRPmOgHJ-35" target="V3ZstoWCX6sCoRPmOgHJ-39">
          <mxGeometry relative="1" as="geometry" />
        </mxCell>
        <mxCell id="V3ZstoWCX6sCoRPmOgHJ-45" value="" style="group;movable=1;resizable=1;rotatable=1;deletable=1;editable=1;locked=0;connectable=1;" vertex="1" connectable="0" parent="1">
          <mxGeometry x="434" y="40" width="75" height="30" as="geometry" />
        </mxCell>
        <mxCell id="V3ZstoWCX6sCoRPmOgHJ-39" value="" style="rounded=0;whiteSpace=wrap;html=1;" vertex="1" parent="V3ZstoWCX6sCoRPmOgHJ-45">
          <mxGeometry width="75" height="30" as="geometry" />
        </mxCell>
        <mxCell id="V3ZstoWCX6sCoRPmOgHJ-43" value="Arduino" style="text;html=1;strokeColor=none;fillColor=none;align=center;verticalAlign=middle;whiteSpace=wrap;rounded=0;" vertex="1" parent="V3ZstoWCX6sCoRPmOgHJ-45">
          <mxGeometry x="7.5" width="60" height="30" as="geometry" />
        </mxCell>
        <mxCell id="V3ZstoWCX6sCoRPmOgHJ-47" value="" style="rounded=0;whiteSpace=wrap;html=1;" vertex="1" parent="1">
          <mxGeometry x="-270" y="249" width="120" height="60" as="geometry" />
        </mxCell>
        <mxCell id="V3ZstoWCX6sCoRPmOgHJ-48" value="" style="rounded=0;whiteSpace=wrap;html=1;" vertex="1" parent="1">
          <mxGeometry x="-280" y="150" width="120" height="60" as="geometry" />
        </mxCell>
        <mxCell id="V3ZstoWCX6sCoRPmOgHJ-49" value="" style="rounded=0;whiteSpace=wrap;html=1;" vertex="1" parent="1">
          <mxGeometry x="332" y="441" width="120" height="60" as="geometry" />
        </mxCell>
        <mxCell id="V3ZstoWCX6sCoRPmOgHJ-51" value="" style="group" vertex="1" connectable="0" parent="1">
          <mxGeometry x="-302" y="70" width="142" height="65" as="geometry" />
        </mxCell>
        <mxCell id="V3ZstoWCX6sCoRPmOgHJ-46" value="" style="rounded=0;whiteSpace=wrap;html=1;" vertex="1" parent="V3ZstoWCX6sCoRPmOgHJ-51">
          <mxGeometry width="140" height="65" as="geometry" />
        </mxCell>
        <mxCell id="V3ZstoWCX6sCoRPmOgHJ-50" value="Intrusion Detection System using Raspberry Pi and Telegram Integration" style="text;html=1;strokeColor=none;fillColor=none;align=center;verticalAlign=middle;whiteSpace=wrap;rounded=0;" vertex="1" parent="V3ZstoWCX6sCoRPmOgHJ-51">
          <mxGeometry x="1" y="18" width="140" height="32" as="geometry" />
        </mxCell>
        <mxCell id="V3ZstoWCX6sCoRPmOgHJ-56" value="" style="edgeStyle=orthogonalEdgeStyle;rounded=0;orthogonalLoop=1;jettySize=auto;html=1;" edge="1" parent="1" source="V3ZstoWCX6sCoRPmOgHJ-52" target="V3ZstoWCX6sCoRPmOgHJ-53">
          <mxGeometry relative="1" as="geometry" />
        </mxCell>
        <mxCell id="V3ZstoWCX6sCoRPmOgHJ-52" value="Facial Recognition using Machine Learning Algorithms on Raspberry Pi" style="text;html=1;strokeColor=none;fillColor=none;align=center;verticalAlign=middle;whiteSpace=wrap;rounded=0;" vertex="1" parent="1">
          <mxGeometry x="-270" y="250" width="120" height="62" as="geometry" />
        </mxCell>
        <mxCell id="V3ZstoWCX6sCoRPmOgHJ-53" value="Singh et al 2019" style="text;html=1;strokeColor=none;fillColor=none;align=center;verticalAlign=middle;whiteSpace=wrap;rounded=0;" vertex="1" parent="1">
          <mxGeometry x="-380" y="266" width="68" height="30" as="geometry" />
        </mxCell>
        <mxCell id="V3ZstoWCX6sCoRPmOgHJ-54" value="Zuma et al 2021" style="text;html=1;strokeColor=none;fillColor=none;align=center;verticalAlign=middle;whiteSpace=wrap;rounded=0;" vertex="1" parent="1">
          <mxGeometry x="-401" y="88" width="60" height="30" as="geometry" />
        </mxCell>
        <mxCell id="V3ZstoWCX6sCoRPmOgHJ-55" value="" style="edgeStyle=orthogonalEdgeStyle;rounded=0;orthogonalLoop=1;jettySize=auto;html=1;" edge="1" parent="1" source="V3ZstoWCX6sCoRPmOgHJ-50" target="V3ZstoWCX6sCoRPmOgHJ-54">
          <mxGeometry relative="1" as="geometry" />
        </mxCell>
        <mxCell id="V3ZstoWCX6sCoRPmOgHJ-60" value="" style="edgeStyle=orthogonalEdgeStyle;rounded=0;orthogonalLoop=1;jettySize=auto;html=1;" edge="1" parent="1" source="V3ZstoWCX6sCoRPmOgHJ-57" target="V3ZstoWCX6sCoRPmOgHJ-58">
          <mxGeometry relative="1" as="geometry" />
        </mxCell>
        <mxCell id="V3ZstoWCX6sCoRPmOgHJ-57" value="Facial Detection and Recognition using OpenCV on Raspberry Pi Zero" style="text;html=1;strokeColor=none;fillColor=none;align=center;verticalAlign=middle;whiteSpace=wrap;rounded=0;" vertex="1" parent="1">
          <mxGeometry x="-278" y="170" width="113" height="20" as="geometry" />
        </mxCell>
        <mxCell id="V3ZstoWCX6sCoRPmOgHJ-58" value="Negpal et al 2018" style="text;html=1;strokeColor=none;fillColor=none;align=center;verticalAlign=middle;whiteSpace=wrap;rounded=0;" vertex="1" parent="1">
          <mxGeometry x="-390" y="165" width="68" height="30" as="geometry" />
        </mxCell>
        <mxCell id="V3ZstoWCX6sCoRPmOgHJ-64" value="" style="edgeStyle=orthogonalEdgeStyle;rounded=0;orthogonalLoop=1;jettySize=auto;html=1;" edge="1" parent="1" source="V3ZstoWCX6sCoRPmOgHJ-61" target="V3ZstoWCX6sCoRPmOgHJ-63">
          <mxGeometry relative="1" as="geometry" />
        </mxCell>
        <mxCell id="V3ZstoWCX6sCoRPmOgHJ-76" style="edgeStyle=orthogonalEdgeStyle;rounded=0;orthogonalLoop=1;jettySize=auto;html=1;entryX=0.5;entryY=0;entryDx=0;entryDy=0;" edge="1" parent="1" source="V3ZstoWCX6sCoRPmOgHJ-61" target="V3ZstoWCX6sCoRPmOgHJ-43">
          <mxGeometry relative="1" as="geometry">
            <Array as="points">
              <mxPoint x="860" y="471" />
              <mxPoint x="860" y="20" />
              <mxPoint x="472" y="20" />
            </Array>
          </mxGeometry>
        </mxCell>
        <mxCell id="V3ZstoWCX6sCoRPmOgHJ-61" value="Face recognition system for access control using principal component analysis" style="text;html=1;strokeColor=none;fillColor=none;align=center;verticalAlign=middle;whiteSpace=wrap;rounded=0;" vertex="1" parent="1">
          <mxGeometry x="330.5" y="454.5" width="123" height="33" as="geometry" />
        </mxCell>
        <mxCell id="V3ZstoWCX6sCoRPmOgHJ-63" value="N. Bakshi and V. Prabhu 2017" style="text;whiteSpace=wrap;html=1;" vertex="1" parent="1">
          <mxGeometry x="163" y="451" width="140" height="40" as="geometry" />
        </mxCell>
        <mxCell id="V3ZstoWCX6sCoRPmOgHJ-65" style="edgeStyle=orthogonalEdgeStyle;rounded=0;orthogonalLoop=1;jettySize=auto;html=1;" edge="1" parent="1" source="V3ZstoWCX6sCoRPmOgHJ-21">
          <mxGeometry relative="1" as="geometry">
            <mxPoint x="395" y="440" as="targetPoint" />
          </mxGeometry>
        </mxCell>
        <mxCell id="V3ZstoWCX6sCoRPmOgHJ-67" value="Researched By" style="text;html=1;strokeColor=none;fillColor=none;align=center;verticalAlign=middle;whiteSpace=wrap;rounded=0;" vertex="1" parent="1">
          <mxGeometry x="320" y="400" width="76" height="30" as="geometry" />
        </mxCell>
        <mxCell id="V3ZstoWCX6sCoRPmOgHJ-70" value="Researched By" style="text;html=1;strokeColor=none;fillColor=none;align=center;verticalAlign=middle;whiteSpace=wrap;rounded=0;" vertex="1" parent="1">
          <mxGeometry x="-144" y="180" width="76" height="30" as="geometry" />
        </mxCell>
        <mxCell id="V3ZstoWCX6sCoRPmOgHJ-71" style="edgeStyle=orthogonalEdgeStyle;rounded=0;orthogonalLoop=1;jettySize=auto;html=1;entryX=1;entryY=0.25;entryDx=0;entryDy=0;" edge="1" parent="1" source="V3ZstoWCX6sCoRPmOgHJ-31" target="V3ZstoWCX6sCoRPmOgHJ-50">
          <mxGeometry relative="1" as="geometry" />
        </mxCell>
        <mxCell id="V3ZstoWCX6sCoRPmOgHJ-72" style="edgeStyle=orthogonalEdgeStyle;rounded=0;orthogonalLoop=1;jettySize=auto;html=1;entryX=1;entryY=0.5;entryDx=0;entryDy=0;" edge="1" parent="1" source="V3ZstoWCX6sCoRPmOgHJ-31" target="V3ZstoWCX6sCoRPmOgHJ-48">
          <mxGeometry relative="1" as="geometry" />
        </mxCell>
        <mxCell id="V3ZstoWCX6sCoRPmOgHJ-73" value="Researched By" style="text;html=1;strokeColor=none;fillColor=none;align=center;verticalAlign=middle;whiteSpace=wrap;rounded=0;" vertex="1" parent="1">
          <mxGeometry x="-150" y="67" width="76" height="30" as="geometry" />
        </mxCell>
        <mxCell id="V3ZstoWCX6sCoRPmOgHJ-75" value="Researched By" style="text;html=1;strokeColor=none;fillColor=none;align=center;verticalAlign=middle;whiteSpace=wrap;rounded=0;" vertex="1" parent="1">
          <mxGeometry x="-153" y="296" width="76" height="30" as="geometry" />
        </mxCell>
        <mxCell id="V3ZstoWCX6sCoRPmOgHJ-82" style="edgeStyle=orthogonalEdgeStyle;rounded=0;orthogonalLoop=1;jettySize=auto;html=1;exitX=1;exitY=0.25;exitDx=0;exitDy=0;" edge="1" parent="1" source="V3ZstoWCX6sCoRPmOgHJ-77">
          <mxGeometry relative="1" as="geometry">
            <mxPoint x="240" y="60" as="targetPoint" />
            <Array as="points">
              <mxPoint x="200" y="93" />
              <mxPoint x="200" y="70" />
              <mxPoint x="240" y="70" />
            </Array>
          </mxGeometry>
        </mxCell>
        <mxCell id="V3ZstoWCX6sCoRPmOgHJ-77" value="Singh et al 2019" style="text;html=1;strokeColor=none;fillColor=none;align=center;verticalAlign=middle;whiteSpace=wrap;rounded=0;" vertex="1" parent="1">
          <mxGeometry x="114" y="85.5" width="68" height="30" as="geometry" />
        </mxCell>
        <mxCell id="V3ZstoWCX6sCoRPmOgHJ-80" style="edgeStyle=orthogonalEdgeStyle;rounded=0;orthogonalLoop=1;jettySize=auto;html=1;entryX=0;entryY=0.5;entryDx=0;entryDy=0;" edge="1" parent="1" source="V3ZstoWCX6sCoRPmOgHJ-78" target="V3ZstoWCX6sCoRPmOgHJ-40">
          <mxGeometry relative="1" as="geometry" />
        </mxCell>
        <mxCell id="V3ZstoWCX6sCoRPmOgHJ-78" value="Zuma et al 2021" style="text;html=1;strokeColor=none;fillColor=none;align=center;verticalAlign=middle;whiteSpace=wrap;rounded=0;" vertex="1" parent="1">
          <mxGeometry x="118" y="-5.5" width="60" height="30" as="geometry" />
        </mxCell>
        <mxCell id="V3ZstoWCX6sCoRPmOgHJ-81" style="edgeStyle=orthogonalEdgeStyle;rounded=0;orthogonalLoop=1;jettySize=auto;html=1;exitX=1;exitY=0.5;exitDx=0;exitDy=0;" edge="1" parent="1" source="V3ZstoWCX6sCoRPmOgHJ-79">
          <mxGeometry relative="1" as="geometry">
            <mxPoint x="240" y="60" as="targetPoint" />
          </mxGeometry>
        </mxCell>
        <mxCell id="V3ZstoWCX6sCoRPmOgHJ-79" value="Negpal et al 2018" style="text;html=1;strokeColor=none;fillColor=none;align=center;verticalAlign=middle;whiteSpace=wrap;rounded=0;" vertex="1" parent="1">
          <mxGeometry x="110" y="37.5" width="68" height="30" as="geometry" />
        </mxCell>
        <mxCell id="V3ZstoWCX6sCoRPmOgHJ-83" value="Works With" style="text;html=1;strokeColor=none;fillColor=none;align=center;verticalAlign=middle;whiteSpace=wrap;rounded=0;" vertex="1" parent="1">
          <mxGeometry x="199" y="7.5" width="60" height="30" as="geometry" />
        </mxCell>
        <mxCell id="V3ZstoWCX6sCoRPmOgHJ-85" value="Works With" style="text;html=1;strokeColor=none;fillColor=none;align=center;verticalAlign=middle;whiteSpace=wrap;rounded=0;" vertex="1" parent="1">
          <mxGeometry x="520" y="-10" width="60" height="30" as="geometry" />
        </mxCell>
      </root>
    </mxGraphModel>
  </diagram>
</mxfile>
